ply
format ascii 1.0
comment Created by Blender 2.71 (sub 0) - www.blender.org, source file: 'TestModel2.blend'
element vertex 18
property float x
property float y
property float z
property float nx
property float ny
property float nz
property float s
property float t
property uchar red
property uchar green
property uchar blue
element face 12
property list uchar uint vertex_indices
end_header
1.000000 -1.000000 -1.000000 0.577349 -0.577349 -0.577349 0.000000 0.000000 255 255 255
-1.000000 -1.000000 -1.000000 -0.577349 -0.577349 -0.577349 1.000000 0.000000 255 255 255
-1.000000 1.000000 -1.000000 -0.577349 0.577349 -0.577349 1.000000 1.000000 255 255 255
-1.000000 1.000000 1.000000 -0.577349 0.577349 0.577349 0.000000 0.000000 255 255 255
-1.000000 -1.000000 1.000000 -0.577349 -0.577349 0.577349 1.000000 0.000000 255 255 255
0.999999 -1.000001 1.000000 0.577349 -0.577349 0.577349 1.000000 1.000000 255 255 255
1.000000 1.000000 -1.000000 0.577349 0.577349 -0.577349 0.000000 0.000000 255 255 255
1.000000 0.999999 1.000000 0.577349 0.577349 0.577349 1.000000 0.000000 255 255 255
0.999999 -1.000001 1.000000 0.577349 -0.577349 0.577349 1.000000 0.000000 255 255 255
-1.000000 -1.000000 1.000000 -0.577349 -0.577349 0.577349 1.000000 1.000000 255 255 255
-1.000000 -1.000000 1.000000 -0.577349 -0.577349 0.577349 0.000000 0.000000 255 255 255
-1.000000 1.000000 1.000000 -0.577349 0.577349 0.577349 1.000000 0.000000 255 255 255
-1.000000 1.000000 -1.000000 -0.577349 0.577349 -0.577349 1.000000 0.000000 255 255 255
-1.000000 1.000000 1.000000 -0.577349 0.577349 0.577349 1.000000 1.000000 255 255 255
1.000000 -1.000000 -1.000000 0.577349 -0.577349 -0.577349 1.000000 0.000000 255 255 255
1.000000 0.999999 1.000000 0.577349 0.577349 0.577349 0.000000 0.000000 255 255 255
1.000000 1.000000 -1.000000 0.577349 0.577349 -0.577349 1.000000 0.000000 255 255 255
-1.000000 -1.000000 -1.000000 -0.577349 -0.577349 -0.577349 0.000000 0.000000 255 255 255
3 0 1 2
3 3 4 5
3 6 7 5
3 0 8 9
3 10 11 2
3 6 12 13
3 6 14 2
3 15 11 5
3 0 16 5
3 17 14 9
3 17 4 2
3 15 16 13
