ply
format ascii 1.0
comment Created by Blender 2.71 (sub 0) - www.blender.org, source file: 'TestModel.blend'
element vertex 75
property float x
property float y
property float z
property float nx
property float ny
property float nz
element face 36
property list uchar uint vertex_indices
end_header
-1.050030 1.104110 -0.823637 -0.103075 -0.295152 0.949874
-0.702592 -0.787141 -1.373599 -0.103075 -0.295152 0.949874
1.256181 -0.513806 -1.076111 -0.103075 -0.295152 0.949874
1.050029 -1.104110 0.823637 0.103075 0.295152 -0.949874
-0.908743 -1.377445 0.526149 0.103075 0.295152 -0.949874
-1.256181 0.513806 1.076111 0.103075 0.295152 -0.949874
1.256181 -0.513806 -1.076111 -0.979386 -0.136667 -0.148744
1.050029 -1.104110 0.823637 -0.979386 -0.136667 -0.148744
0.702592 0.787140 1.373599 -0.979386 -0.136667 -0.148744
1.256181 -0.513806 -1.076111 -0.173719 0.945625 0.274981
-0.702592 -0.787141 -1.373599 -0.173719 0.945625 0.274981
-0.908743 -1.377445 0.526149 -0.173719 0.945625 0.274981
-1.050030 1.104110 -0.823637 0.979386 0.136667 0.148744
-1.256181 0.513806 1.076111 0.979386 0.136667 0.148744
-0.908743 -1.377445 0.526149 0.979386 0.136667 0.148744
-1.256181 0.513806 1.076111 0.173719 -0.945625 -0.274981
-1.050030 1.104110 -0.823637 0.173719 -0.945625 -0.274981
0.908742 1.377445 -0.526149 0.173719 -0.945625 -0.274981
1.335920 -1.084661 -0.222681 0.147586 0.573548 -0.805768
-0.504327 -1.523029 -0.871776 0.147586 0.573548 -0.805768
-1.229837 0.055580 0.118997 0.147586 0.573548 -0.805768
-0.799499 -2.670124 0.739760 0.362755 -0.789305 -0.495386
1.040748 -2.231756 1.388854 0.362755 -0.789305 -0.495386
1.688446 -2.528855 2.336513 0.362755 -0.789305 -0.495386
-0.799499 -2.670124 0.739760 -0.754984 -0.560546 0.340274
-0.151801 -2.967223 1.687419 -0.754984 -0.560546 0.340274
-0.877310 -1.388615 2.678191 -0.754984 -0.560546 0.340274
1.335920 -1.084661 -0.222681 0.362755 -0.789304 -0.495387
1.040748 -2.231756 1.388854 0.362755 -0.789304 -0.495387
-0.799499 -2.670124 0.739760 0.362755 -0.789304 -0.495387
-0.799499 -2.670124 0.739760 -0.920124 -0.219184 -0.324547
-1.525008 -1.091516 1.730532 -0.920124 -0.219184 -0.324547
-1.229837 0.055580 0.118997 -0.920124 -0.219184 -0.324547
0.610410 0.493948 0.768091 -0.362755 0.789304 0.495387
-1.229837 0.055580 0.118997 -0.362755 0.789304 0.495387
-1.525008 -1.091516 1.730532 -0.362755 0.789304 0.495387
0.962937 -0.950247 3.327285 -0.147586 -0.573548 0.805768
-0.877310 -1.388615 2.678191 -0.147586 -0.573548 0.805768
-0.151801 -2.967223 1.687419 -0.147586 -0.573548 0.805768
1.258108 0.196849 1.715750 0.920124 0.219184 0.324547
0.962937 -0.950247 3.327285 0.920124 0.219184 0.324547
1.688446 -2.528855 2.336513 0.920124 0.219184 0.324547
-1.525008 -1.091516 1.730532 -0.362755 0.789304 0.495386
-0.877310 -1.388615 2.678191 -0.362755 0.789304 0.495386
0.962937 -0.950247 3.327285 -0.362755 0.789304 0.495386
1.335920 -1.084661 -0.222681 0.362755 -0.789304 -0.495386
1.983618 -1.381760 0.724978 0.362755 -0.789304 -0.495386
1.688446 -2.528855 2.336513 0.362755 -0.789304 -0.495386
0.610410 0.493948 0.768091 -0.362755 0.789304 0.495386
0.315239 -0.653148 2.379626 -0.362755 0.789304 0.495386
0.610410 0.493948 0.768091 0.754984 0.560546 -0.340274
1.258108 0.196849 1.715750 0.754984 0.560546 -0.340274
1.983618 -1.381760 0.724978 0.754984 0.560546 -0.340274
0.908742 1.377445 -0.526149 -0.103075 -0.295152 0.949874
0.702592 0.787140 1.373599 0.103075 0.295152 -0.949874
0.908742 1.377445 -0.526149 -0.979386 -0.136668 -0.148744
1.256181 -0.513806 -1.076111 -0.979386 -0.136668 -0.148744
0.702592 0.787140 1.373599 -0.979386 -0.136668 -0.148744
1.050029 -1.104110 0.823637 -0.173719 0.945625 0.274981
-0.702592 -0.787141 -1.373599 0.979386 0.136667 0.148744
0.702592 0.787140 1.373599 0.173719 -0.945625 -0.274981
0.610410 0.493948 0.768091 0.147586 0.573548 -0.805768
-0.151801 -2.967223 1.687419 0.362755 -0.789305 -0.495386
-1.525008 -1.091516 1.730532 -0.754984 -0.560546 0.340274
-0.504327 -1.523029 -0.871776 0.362755 -0.789304 -0.495386
-0.799499 -2.670124 0.739760 0.362755 -0.789304 -0.495386
-0.504327 -1.523029 -0.871776 -0.920124 -0.219184 -0.324547
0.315239 -0.653148 2.379626 -0.362755 0.789304 0.495387
1.688446 -2.528855 2.336513 -0.147586 -0.573548 0.805768
1.983618 -1.381760 0.724978 0.920124 0.219184 0.324548
1.258108 0.196849 1.715750 0.920124 0.219184 0.324548
1.688446 -2.528855 2.336513 0.920124 0.219184 0.324548
1.040748 -2.231756 1.388854 0.362755 -0.789304 -0.495386
1.258108 0.196849 1.715750 -0.362755 0.789304 0.495386
1.335920 -1.084661 -0.222681 0.754984 0.560546 -0.340274
3 0 1 2
3 3 4 5
3 6 7 8
3 9 10 11
3 12 13 14
3 15 16 17
3 18 19 20
3 21 22 23
3 24 25 26
3 27 28 29
3 30 31 32
3 33 34 35
3 36 37 38
3 39 40 41
3 42 43 44
3 45 46 47
3 48 49 44
3 50 51 52
3 53 0 2
3 54 3 5
3 55 56 57
3 58 9 11
3 59 12 14
3 60 15 17
3 61 18 20
3 62 21 23
3 63 24 26
3 64 45 65
3 66 30 32
3 67 33 35
3 68 36 38
3 69 70 71
3 49 42 44
3 72 45 47
3 73 48 44
3 74 50 52
